<?xml version="1.0" standalone="no"?>
<!DOCTYPE svg PUBLIC "-//W3C//DTD SVG 20010904//EN"
 "http://www.w3.org/TR/2001/REC-SVG-20010904/DTD/svg10.dtd">
<svg version="1.0" xmlns="http://www.w3.org/2000/svg"
 width="256.000000pt" height="256.000000pt" viewBox="0 0 256.000000 256.000000"
 preserveAspectRatio="xMidYMid meet">
<metadata>
Created by potrace 1.14, written by Peter Selinger 2001-2017
</metadata>
<g transform="translate(0.000000,256.000000) scale(0.100000,-0.100000)"
fill="#000000" stroke="none">
<path d="M485 2300 c-51 -25 -102 -83 -115 -129 -14 -50 -13 -1773 0 -1823 6
-20 27 -55 48 -77 69 -73 42 -70 713 -71 451 0 611 3 642 12 50 15 119 80 135
128 9 24 11 269 9 935 l-2 901 -28 42 c-15 23 -46 54 -69 69 l-42 28 -625 2
c-603 2 -627 1 -666 -17z"/>
<path d="M2050 2065 c-10 -12 -10 -21 -2 -40 10 -22 18 -25 62 -25 59 0 90 13
90 38 0 31 -22 42 -81 42 -39 0 -61 -5 -69 -15z"/>
<path d="M2052 1868 c-18 -18 -14 -46 7 -58 11 -5 42 -10 69 -10 60 0 81 18
64 55 -10 22 -18 25 -70 25 -32 0 -63 -5 -70 -12z"/>
<path d="M2048 1655 c-17 -37 4 -55 64 -55 57 0 88 13 88 38 0 31 -22 42 -82
42 -52 0 -60 -3 -70 -25z"/>
<path d="M2052 1468 c-18 -18 -14 -46 7 -58 27 -14 114 -13 129 2 18 18 14 46
-7 58 -27 14 -114 13 -129 -2z"/>
<path d="M2050 1265 c-10 -12 -10 -21 -2 -40 10 -22 18 -25 62 -25 59 0 90 13
90 38 0 31 -22 42 -81 42 -39 0 -61 -5 -69 -15z"/>
<path d="M2058 1069 c-21 -12 -23 -40 -6 -57 16 -16 120 -16 136 0 18 18 14
46 -7 58 -25 13 -101 13 -123 -1z"/>
<path d="M2050 865 c-10 -12 -10 -21 -2 -40 10 -23 18 -25 71 -25 70 0 91 16
73 55 -10 23 -18 25 -71 25 -40 0 -62 -5 -71 -15z"/>
<path d="M2052 668 c-18 -18 -15 -46 8 -58 32 -17 121 -8 134 13 8 12 8 22 0
35 -14 21 -122 30 -142 10z"/>
<path d="M2052 468 c-7 -7 -12 -19 -12 -28 0 -29 23 -40 81 -40 68 0 88 16 71
55 -10 22 -18 25 -70 25 -32 0 -63 -5 -70 -12z"/>
</g>
</svg>
